# xmcd
#
# Track frame offsets:
#	150
#	18177
#	38630
#	51439
#	69832
#	88097
#	109625
#	127847
#	144632
#	155420
#	168562
#	182209
#
# Disc length: 2558 seconds
# Revision: 0
# Processed by: cddbd v1.5.2PL0 Copyright (c) Steve Scherf et al.
# Submitted via: dBpowerAMP V12.0
#
DISCID=9909fc0c
DTITLE=Kasey Chambers - The Captain (Advance)
DYEAR=1999
DGENRE=Country
TTITLE0=Cry Like A Baby
TTITLE1=The Captain
TTITLE2=This Flower
TTITLE3=You Got The Car
TTITLE4=Southern Kind Of Life
TTITLE5=Don't Talk Back
TTITLE6=These Pines
TTITLE7=Mr. Baylis
TTITLE8=Last Hard Bible
TTITLE9=The Hard Way
TTITLE10=Don't Go
TTITLE11=We're All Gonna Die Someday
EXTD=
EXTT0=
EXTT1=
EXTT2=
EXTT3=
EXTT4=
EXTT5=
EXTT6=
EXTT7=
EXTT8=
EXTT9=
EXTT10=
EXTT11=
PLAYORDER=
